<svg xmlns="http://www.w3.org/2000/svg" xmlns:xlink="http://www.w3.org/1999/xlink" width="500" zoomAndPan="magnify" viewBox="0 0 375 374.999991" height="500" preserveAspectRatio="xMidYMid meet" version="1.0"><defs><g/><clipPath id="8a314bf6de"><path d="M 131.019531 104.792969 L 213 104.792969 L 213 187 L 131.019531 187 Z M 131.019531 104.792969 " clip-rule="nonzero"/></clipPath><clipPath id="486b24aac0"><path d="M 162 137 L 244.195312 137 L 244.195312 219.542969 L 162 219.542969 Z M 162 137 " clip-rule="nonzero"/></clipPath></defs><g clip-path="url(#8a314bf6de)"><path fill="#ffffff" d="M 193.3125 129.265625 C 191.316406 129.265625 189.394531 128.527344 187.894531 127.207031 C 183.585938 123.417969 177.957031 121.113281 171.773438 121.113281 C 158.25 121.113281 147.289062 132.078125 147.289062 145.601562 C 147.28125 159.125 158.25 170.078125 171.773438 170.078125 L 204.414062 170.078125 C 208.921875 170.078125 212.578125 173.734375 212.578125 178.242188 C 212.578125 182.75 208.921875 186.40625 204.414062 186.40625 L 171.773438 186.40625 C 149.242188 186.402344 130.972656 168.132812 130.972656 145.597656 C 130.972656 123.058594 149.242188 104.804688 171.773438 104.792969 C 182.089844 104.796875 191.515625 108.632812 198.699219 114.949219 C 204.363281 119.929688 200.851562 129.265625 193.3125 129.265625 Z M 193.3125 129.265625 " fill-opacity="1" fill-rule="nonzero"/></g><g clip-path="url(#486b24aac0)"><path fill="#ffffff" d="M 181.6875 194.957031 C 183.683594 194.957031 185.605469 195.695312 187.105469 197.011719 C 191.414062 200.796875 197.039062 203.105469 203.226562 203.105469 C 216.785156 203.105469 227.769531 192.066406 227.703125 178.496094 C 227.640625 164.976562 216.476562 154.128906 202.957031 154.128906 L 170.582031 154.128906 C 166.078125 154.128906 162.421875 150.476562 162.421875 145.96875 C 162.421875 141.460938 166.078125 137.808594 170.582031 137.808594 L 203.226562 137.808594 C 225.753906 137.808594 244.03125 156.078125 244.03125 178.613281 C 244.03125 201.152344 225.757812 219.410156 203.226562 219.417969 C 192.910156 219.410156 183.488281 215.578125 176.304688 209.261719 C 170.640625 204.289062 174.152344 194.957031 181.6875 194.957031 Z M 181.6875 194.957031 " fill-opacity="1" fill-rule="nonzero"/></g><g fill="#ffffff" fill-opacity="1"><g transform="translate(119.02617, 247.79348)"><g><path d="M 20.910156 -18 L 17.699219 -5.519531 L 14.25 -18 L 10.410156 -18 L 6.988281 -5.460938 L 3.75 -18 L -0.421875 -18 L 4.5 0 L 9.058594 0 L 12.328125 -12.660156 L 15.601562 0 L 20.160156 0 L 25.078125 -18 Z M 20.910156 -18 "/></g></g></g><g fill="#ffffff" fill-opacity="1"><g transform="translate(143.206149, 247.79348)"><g><path d="M 13.980469 -6.03125 C 13.980469 -9.78125 11.398438 -12.269531 7.53125 -12.269531 C 3.660156 -12.269531 0.929688 -9.75 0.929688 -6 C 0.929688 -2.25 3.628906 0.238281 7.648438 0.238281 C 10.980469 0.238281 13.199219 -1.53125 13.800781 -4.140625 L 10.109375 -4.140625 C 9.78125 -3.179688 8.910156 -2.609375 7.589844 -2.609375 C 5.851562 -2.609375 4.949219 -3.660156 4.800781 -5.371094 L 13.980469 -5.371094 Z M 7.589844 -9.328125 C 8.878906 -9.328125 9.628906 -8.730469 10.019531 -7.679688 L 5.039062 -7.679688 C 5.429688 -8.699219 6.238281 -9.328125 7.589844 -9.328125 Z M 7.589844 -9.328125 "/></g></g></g><g fill="#ffffff" fill-opacity="1"><g transform="translate(157.606135, 247.79348)"><g><path d="M 15.148438 -3.121094 C 14.640625 -3.121094 14.101562 -3.300781 14.101562 -4.289062 L 14.101562 -12 L 10.289062 -12 L 10.289062 -10.949219 C 9.390625 -11.761719 8.25 -12.238281 6.871094 -12.238281 C 3.539062 -12.238281 0.929688 -9.480469 0.929688 -6 C 0.929688 -2.519531 3.539062 0.238281 6.871094 0.238281 C 8.609375 0.238281 10.019531 -0.539062 10.980469 -1.800781 C 11.730469 -0.570312 13.050781 0.238281 14.671875 0.238281 C 15.058594 0.238281 15.421875 0.121094 15.691406 0 L 15.691406 -3.121094 Z M 7.621094 -3.148438 C 6.03125 -3.148438 4.769531 -4.410156 4.769531 -6 C 4.769531 -7.589844 6.03125 -8.851562 7.621094 -8.851562 C 9.179688 -8.851562 10.46875 -7.589844 10.46875 -6 C 10.46875 -4.410156 9.179688 -3.148438 7.621094 -3.148438 Z M 7.621094 -3.148438 "/></g></g></g><g fill="#ffffff" fill-opacity="1"><g transform="translate(173.266114, 247.79348)"><g><path d="M 9 -12 L 6.480469 -4.109375 L 3.929688 -12 L -0.148438 -12 L 4.648438 0 L 8.25 0 L 13.109375 -12 Z M 9 -12 "/></g></g></g><g fill="#ffffff" fill-opacity="1"><g transform="translate(185.746101, 247.79348)"><g><path d="M 13.980469 -6.03125 C 13.980469 -9.78125 11.398438 -12.269531 7.53125 -12.269531 C 3.660156 -12.269531 0.929688 -9.75 0.929688 -6 C 0.929688 -2.25 3.628906 0.238281 7.648438 0.238281 C 10.980469 0.238281 13.199219 -1.53125 13.800781 -4.140625 L 10.109375 -4.140625 C 9.78125 -3.179688 8.910156 -2.609375 7.589844 -2.609375 C 5.851562 -2.609375 4.949219 -3.660156 4.800781 -5.371094 L 13.980469 -5.371094 Z M 7.589844 -9.328125 C 8.878906 -9.328125 9.628906 -8.730469 10.019531 -7.679688 L 5.039062 -7.679688 C 5.429688 -8.699219 6.238281 -9.328125 7.589844 -9.328125 Z M 7.589844 -9.328125 "/></g></g></g><g fill="#ffffff" fill-opacity="1"><g transform="translate(200.146087, 247.79348)"><g><path d="M 7.320312 0.238281 C 10.679688 0.238281 13.53125 -1.738281 13.53125 -5.101562 C 13.53125 -11.761719 5.25 -10.109375 5.25 -13.230469 C 5.25 -14.25 6.03125 -14.730469 6.988281 -14.730469 C 8.011719 -14.730469 9.03125 -14.160156 9.929688 -13.171875 L 12.570312 -15.691406 C 11.25 -17.21875 9.238281 -18.238281 7.019531 -18.238281 C 4.171875 -18.238281 1.261719 -16.53125 1.261719 -12.929688 C 1.261719 -6.808594 9.570312 -8.28125 9.570312 -5.128906 C 9.570312 -4.140625 8.730469 -3.480469 7.351562 -3.480469 C 5.699219 -3.480469 4.410156 -4.410156 3.75 -5.820312 L 0.480469 -3.78125 C 1.648438 -1.53125 4.171875 0.238281 7.320312 0.238281 Z M 7.320312 0.238281 "/></g></g></g><g fill="#ffffff" fill-opacity="1"><g transform="translate(213.886069, 247.79348)"><g><path d="M 9.03125 -12.238281 C 7.648438 -12.238281 6.511719 -11.761719 5.609375 -10.949219 L 5.609375 -11.96875 L 1.769531 -12 L 1.769531 7.199219 L 5.609375 7.230469 L 5.609375 -1.050781 C 6.511719 -0.238281 7.648438 0.238281 9.03125 0.238281 C 12.328125 0.238281 14.941406 -2.519531 14.941406 -6 C 14.941406 -9.480469 12.328125 -12.238281 9.03125 -12.238281 Z M 8.28125 -3.148438 C 6.691406 -3.148438 5.429688 -4.410156 5.429688 -6 C 5.429688 -7.589844 6.691406 -8.851562 8.28125 -8.851562 C 9.871094 -8.851562 11.128906 -7.589844 11.128906 -6 C 11.128906 -4.410156 9.871094 -3.148438 8.28125 -3.148438 Z M 8.28125 -3.148438 "/></g></g></g><g fill="#ffffff" fill-opacity="1"><g transform="translate(229.276048, 247.79348)"><g><path d="M 8.96875 -12.238281 C 7.648438 -12.238281 6.449219 -11.640625 5.609375 -10.648438 L 5.609375 -20.550781 L 1.769531 -20.550781 L 1.769531 0 L 5.609375 0 L 5.609375 -6.78125 C 5.609375 -7.828125 6.480469 -8.851562 7.648438 -8.851562 C 8.730469 -8.851562 9.480469 -8.011719 9.480469 -6.960938 L 9.480469 0 L 13.320312 0 L 13.320312 -7.589844 C 13.320312 -10.230469 11.398438 -12.238281 8.96875 -12.238281 Z M 8.96875 -12.238281 "/></g></g></g><g fill="#ffffff" fill-opacity="1"><g transform="translate(243.616032, 247.79348)"><g><path d="M 13.980469 -6.03125 C 13.980469 -9.78125 11.398438 -12.269531 7.53125 -12.269531 C 3.660156 -12.269531 0.929688 -9.75 0.929688 -6 C 0.929688 -2.25 3.628906 0.238281 7.648438 0.238281 C 10.980469 0.238281 13.199219 -1.53125 13.800781 -4.140625 L 10.109375 -4.140625 C 9.78125 -3.179688 8.910156 -2.609375 7.589844 -2.609375 C 5.851562 -2.609375 4.949219 -3.660156 4.800781 -5.371094 L 13.980469 -5.371094 Z M 7.589844 -9.328125 C 8.878906 -9.328125 9.628906 -8.730469 10.019531 -7.679688 L 5.039062 -7.679688 C 5.429688 -8.699219 6.238281 -9.328125 7.589844 -9.328125 Z M 7.589844 -9.328125 "/></g></g></g><g fill="#ffffff" fill-opacity="1"><g transform="translate(258.016018, 247.79348)"><g><path d="M 8.96875 -12.238281 C 7.558594 -12.238281 6.390625 -11.519531 5.609375 -10.351562 L 5.609375 -12 L 1.769531 -12 L 1.769531 0 L 5.609375 0 L 5.609375 -5.730469 C 5.609375 -7.710938 6.960938 -8.851562 8.851562 -8.851562 C 9.300781 -8.851562 9.691406 -8.789062 9.960938 -8.730469 L 9.960938 -12.121094 C 9.691406 -12.210938 9.328125 -12.238281 8.96875 -12.238281 Z M 8.96875 -12.238281 "/></g></g></g><g fill="#ffffff" fill-opacity="1"><g transform="translate(267.436004, 247.79348)"><g><path d="M 13.980469 -6.03125 C 13.980469 -9.78125 11.398438 -12.269531 7.53125 -12.269531 C 3.660156 -12.269531 0.929688 -9.75 0.929688 -6 C 0.929688 -2.25 3.628906 0.238281 7.648438 0.238281 C 10.980469 0.238281 13.199219 -1.53125 13.800781 -4.140625 L 10.109375 -4.140625 C 9.78125 -3.179688 8.910156 -2.609375 7.589844 -2.609375 C 5.851562 -2.609375 4.949219 -3.660156 4.800781 -5.371094 L 13.980469 -5.371094 Z M 7.589844 -9.328125 C 8.878906 -9.328125 9.628906 -8.730469 10.019531 -7.679688 L 5.039062 -7.679688 C 5.429688 -8.699219 6.238281 -9.328125 7.589844 -9.328125 Z M 7.589844 -9.328125 "/></g></g></g></svg>